<svg xmlns="http://www.w3.org/2000/svg" viewBox="0 0 800 520" role="img" aria-label="brand magnaready">
  <defs>
    <linearGradient id="bg" x1="0" y1="0" x2="1" y2="1">
      <stop offset="0" stop-color="#E2EBF5"/>
      <stop offset="1" stop-color="#C3D6EC"/>
    </linearGradient>
  </defs>
  <rect width="800" height="520" fill="url(#bg)"/>
  <circle cx="660" cy="80" r="190" fill="#ffffff" opacity="0.22"/>
  <circle cx="110" cy="470" r="150" fill="#ffffff" opacity="0.16"/>
  <circle cx="700" cy="450" r="90" fill="#1F4E79" opacity="0.05"/>
  <g stroke="#1F4E79" stroke-width="1" opacity="0.05">
    <line x1="0" y1="120" x2="800" y2="40"/>
    <line x1="0" y1="300" x2="800" y2="220"/>
    <line x1="0" y1="480" x2="800" y2="400"/>
  </g>
  <g transform="translate(244,104) scale(13)" fill="none" stroke="#1F4E79" stroke-width="1.15" stroke-linecap="round" stroke-linejoin="round" opacity="0.9"><path d="M8.4 4.4 4 7.1l1.7 2.9 2-1.1v10.7h8.6V8.9l2 1.1L20 7.1l-4.4-2.7a3.6 3.6 0 0 1-7.2 0z"/><path d="M12 8.8v10.4"/><circle cx="12" cy="11.4" r="0.35" fill="#1F4E79" stroke="none"/><circle cx="12" cy="14.2" r="0.35" fill="#1F4E79" stroke="none"/><circle cx="12" cy="17" r="0.35" fill="#1F4E79" stroke="none"/></g>
</svg>