<svg xmlns="http://www.w3.org/2000/svg" viewBox="0 0 800 520" role="img" aria-label="hero">
  <defs>
    <linearGradient id="bg" x1="0" y1="0" x2="1" y2="1">
      <stop offset="0" stop-color="#DCEFE7"/>
      <stop offset="1" stop-color="#B7DECC"/>
    </linearGradient>
  </defs>
  <rect width="800" height="520" fill="url(#bg)"/>
  <circle cx="660" cy="80" r="190" fill="#ffffff" opacity="0.22"/>
  <circle cx="110" cy="470" r="150" fill="#ffffff" opacity="0.16"/>
  <circle cx="700" cy="450" r="90" fill="#0E5C42" opacity="0.05"/>
  <g stroke="#0E5C42" stroke-width="1" opacity="0.05">
    <line x1="0" y1="120" x2="800" y2="40"/>
    <line x1="0" y1="300" x2="800" y2="220"/>
    <line x1="0" y1="480" x2="800" y2="400"/>
  </g>
  <g transform="translate(244,104) scale(13)" fill="none" stroke="#0E5C42" stroke-width="1.15" stroke-linecap="round" stroke-linejoin="round" opacity="0.9"><path d="M12 7a2.2 2.2 0 1 1 2.2-2.2"/><path d="M12 7 4.6 12.4a1.9 1.9 0 0 0 1.1 3.4h12.6a1.9 1.9 0 0 0 1.1-3.4L12 7z"/></g>
</svg>