<svg xmlns="http://www.w3.org/2000/svg" viewBox="0 0 800 520" role="img" aria-label="need onehanded">
  <defs>
    <linearGradient id="bg" x1="0" y1="0" x2="1" y2="1">
      <stop offset="0" stop-color="#FBEEE5"/>
      <stop offset="1" stop-color="#F2D8C6"/>
    </linearGradient>
  </defs>
  <rect width="800" height="520" fill="url(#bg)"/>
  <circle cx="660" cy="80" r="190" fill="#ffffff" opacity="0.22"/>
  <circle cx="110" cy="470" r="150" fill="#ffffff" opacity="0.16"/>
  <circle cx="700" cy="450" r="90" fill="#8C4F26" opacity="0.05"/>
  <g stroke="#8C4F26" stroke-width="1" opacity="0.05">
    <line x1="0" y1="120" x2="800" y2="40"/>
    <line x1="0" y1="300" x2="800" y2="220"/>
    <line x1="0" y1="480" x2="800" y2="400"/>
  </g>
  <g transform="translate(244,104) scale(13)" fill="none" stroke="#8C4F26" stroke-width="1.15" stroke-linecap="round" stroke-linejoin="round" opacity="0.9"><path d="M8.6 12V6a1.4 1.4 0 0 1 2.8 0v5"/><path d="M11.4 11V4.8a1.4 1.4 0 0 1 2.8 0V11"/><path d="M14.2 11.2V6.4a1.4 1.4 0 0 1 2.8 0v6.8c0 3.8-2.4 6.4-6 6.4-3 0-4.5-1.5-6.2-4.6-.5-1-.3-1.9.5-2.4.7-.4 1.6-.2 2.2.6l1.1 1.4"/></g>
</svg>