<svg xmlns="http://www.w3.org/2000/svg" viewBox="0 0 800 520" role="img" aria-label="style swedish">
  <defs>
    <linearGradient id="bg" x1="0" y1="0" x2="1" y2="1">
      <stop offset="0" stop-color="#E7F0F4"/>
      <stop offset="1" stop-color="#CEE1E9"/>
    </linearGradient>
  </defs>
  <rect width="800" height="520" fill="url(#bg)"/>
  <circle cx="660" cy="80" r="190" fill="#ffffff" opacity="0.22"/>
  <circle cx="110" cy="470" r="150" fill="#ffffff" opacity="0.16"/>
  <circle cx="700" cy="450" r="90" fill="#33606F" opacity="0.05"/>
  <g stroke="#33606F" stroke-width="1" opacity="0.05">
    <line x1="0" y1="120" x2="800" y2="40"/>
    <line x1="0" y1="300" x2="800" y2="220"/>
    <line x1="0" y1="480" x2="800" y2="400"/>
  </g>
  <g transform="translate(244,104) scale(13)" fill="none" stroke="#33606F" stroke-width="1.15" stroke-linecap="round" stroke-linejoin="round" opacity="0.9"><circle cx="12" cy="12" r="3.4"/><path d="M12 4.2v2.2 M12 17.6v2.2 M4.2 12h2.2 M17.6 12h2.2 M6.5 6.5l1.6 1.6 M15.9 15.9l1.6 1.6 M17.5 6.5l-1.6 1.6 M8.1 15.9l-1.6 1.6"/></g>
</svg>